<svg xmlns="http://www.w3.org/2000/svg"
     width="64"
     height="64"
     viewBox="0 0 64 64"
     fill="none">

    <!-- Shield -->
    <path
        d="M32 6L50 14V29C50 42 41 52 32 58C23 52 14 42 14 29V14L32 6Z"
        stroke="#A020FF"
        stroke-width="3"
        fill="none"/>

    <!-- Lock Body -->
    <rect
        x="25"
        y="28"
        width="14"
        height="12"
        rx="2"
        stroke="#A020FF"
        stroke-width="2.5"
        fill="none"/>

    <!-- Lock Arc -->
    <path
        d="M28 28V24C28 21.8 29.8 20 32 20C34.2 20 36 21.8 36 24V28"
        stroke="#A020FF"
        stroke-width="2.5"
        stroke-linecap="round"/>

    <!-- Key Hole -->
    <circle
        cx="32"
        cy="34"
        r="1.5"
        fill="#A020FF"/>

    <path
        d="M32 35.5V38"
        stroke="#A020FF"
        stroke-width="2"
        stroke-linecap="round"/>

    <!-- Security Rays -->
    <line
        x1="32"
        y1="2"
        x2="32"
        y2="8"
        stroke="#A020FF"
        stroke-width="2"/>

    <line
        x1="54"
        y1="16"
        x2="49"
        y2="19"
        stroke="#A020FF"
        stroke-width="2"/>

    <line
        x1="10"
        y1="16"
        x2="15"
        y2="19"
        stroke="#A020FF"
        stroke-width="2"/>

</svg>
